# xmcd
#
# Track frame offsets:
#	187
#	13715
#	26527
#	41792
#	58930
#	69012
#	80425
#	101637
#	113382
#	125352
#	135162
#	147240
#	161410
#	178075
#	190347
#	199077
#	209112
#	222245
#	236687
#	252325
#
# Disc length: 3552 seconds
#
# Revision: 3
# Processed by: cddbd v1.5.2PL0 Copyright (c) Steve Scherf et al.
# Submitted via: dBpowerAMP V4.0
#
DISCID=1d0dde14
DTITLE=Various Artist - Country Sweet 'n' Sentimental disc 3
DYEAR=1993
DGENRE=Country
TTITLE0=Dolly Parton - Send Me the Pillow You Dream On
TTITLE1=Reba Mcentire - Only You (and You Alone)
TTITLE2=Kathy Mattea - 18 Wheels and a Dozen Roses
TTITLE3=Tanya Tucker - Love Me Like You Used To
TTITLE4=Patly Cline - I Love You So Much It Hurts
TTITLE5=Patti Page - Please Help Me, I'm Falling (in Love with You)
TTITLE6=KT Oslin - Hold Me
TTITLE7=Loretta Lynn - My Shoes Keep Walking Back to You
TTITLE8=Dottie West - You Don't Know Me
TTITLE9=Jeannie C Riley - Wish You Were Here
TTITLE10=Conway Twitty - By The Time I Get to Phoenix
TTITLE11=Ferlin Husky - Just for Old Time Sake
TTITLE12=Jimmy Dean, Dottie West, The Jordanaires - For The Good Times
TTITLE13=Jerry Lee Lewis - She Even Woke Me up to Say Goodbye
TTITLE14=Charley Pride - Guess Things Happen That Way
TTITLE15=Don Gibson, The Jordanaires - Funny, Familar, Forgotten Feelings
TTITLE16=Crystal Gayle - The Wayward Wind
TTITLE17=Red Foley - That Lucky Old Sun (Just Rolls Around Heaven All Day)
TTITLE18=Skeeter Davis - Both Sides Now
TTITLE19=Webb Pierce - Gotta to Travel On
EXTD=additions and corrections\n
EXTT0=
EXTT1=
EXTT2=
EXTT3=
EXTT4=
EXTT5=
EXTT6=
EXTT7=
EXTT8=
EXTT9=
EXTT10=
EXTT11=
EXTT12=
EXTT13=
EXTT14=
EXTT15=
EXTT16=
EXTT17=
EXTT18=
EXTT19=
PLAYORDER=
